<?xml version="1.0" encoding="UTF-8"?>
<svg version="1.1" xmlns="http://www.w3.org/2000/svg" width="512" height="512">
<path d="M0 0 C13.18439655 12.26191686 23.57149798 25.69508511 31.9375 41.6875 C33.03191406 41.42066406 34.12632812 41.15382813 35.25390625 40.87890625 C41.25554977 40.15513615 45.67498804 42.92089304 50.875 45.625 C53.10781256 46.74140628 55.34089985 47.85726321 57.57421875 48.97265625 C58.77539644 49.58055894 59.97640195 50.18880197 61.17724609 50.79736328 C67.11015267 53.79291757 73.10483223 56.66220772 79.09072876 59.54989624 C82.61512682 61.25195065 86.13541706 62.96246171 89.65625 64.671875 C100.8881465 70.12176758 112.13260405 75.54558129 123.37695312 80.96972656 C126.97552015 82.70584269 130.57376232 84.44263004 134.171875 86.1796875 C134.77207458 86.46938416 135.37227417 86.75908081 135.99066162 87.05755615 C138.99793895 88.5091747 142.00468545 89.96186957 145.01074219 91.41601562 C150.66334502 94.14910841 156.31949052 96.87363817 161.99035645 99.56866455 C164.66417538 100.84000396 167.33570881 102.11610518 170.00708008 103.39257812 C171.27922116 103.99880395 172.55247384 104.60270344 173.8269043 105.20410156 C175.59574811 106.0389902 177.36046272 106.8826101 179.125 107.7265625 C180.12917969 108.20303223 181.13335937 108.67950195 182.16796875 109.17041016 C188.26391163 112.50963698 191.81900306 116.08650628 193.9375 122.6875 C194.47303108 126.41529837 194.49839984 130.05193475 194.4375 133.8125 C194.45296875 134.77542969 194.4684375 135.73835937 194.484375 136.73046875 C194.44507951 143.87242397 193.17128814 147.33821943 188.1875 152.5 C184.87252016 154.24957269 181.65658417 154.27719618 177.9375 154.6875 C177.94303076 155.72025779 177.94856152 156.75301558 177.95425987 157.81706905 C178.08750596 182.95589475 178.18607754 208.09467461 178.24837303 233.23377895 C178.27930008 245.39092503 178.32145901 257.54783772 178.39013672 269.70483398 C178.44997347 280.30190646 178.48865751 290.89880988 178.50203097 301.4960466 C178.50984739 307.10636166 178.52819443 312.71619313 178.57188034 318.32635307 C178.6126885 323.60989477 178.62515227 328.89275495 178.61614609 334.17643929 C178.61779304 336.11260307 178.62967888 338.04879028 178.65273285 339.9848175 C178.85254859 357.63476922 178.85254859 357.63476922 173.58005714 364.16243076 C168.64037316 368.7487918 163.27307154 370.80781024 156.5789299 370.81892776 C155.7085338 370.82276891 154.8381377 370.82661005 153.94136596 370.8305676 C152.98962816 370.82970112 152.03789035 370.82883463 151.05731201 370.82794189 C150.0427343 370.83091302 149.02815659 370.83388414 147.9828341 370.8369453 C144.57285767 370.84563784 141.16291633 370.84714102 137.75292969 370.84863281 C135.31214828 370.85326058 132.8713676 370.85828519 130.43058777 370.86367798 C123.79206811 370.87680776 117.15356219 370.88328476 110.51503277 370.88768864 C106.36874705 370.8904525 102.22246365 370.89469012 98.0761795 370.89919281 C86.59304323 370.9113845 75.10990881 370.92168395 63.6267662 370.9250679 C62.52459287 370.92539725 62.52459287 370.92539725 61.40015341 370.92573325 C60.66362744 370.92595153 59.92710146 370.92616981 59.16825652 370.9263947 C57.67581034 370.92683816 56.18336415 370.92728473 54.69091797 370.92773438 C53.95061538 370.9279558 53.21031279 370.92817723 52.44757679 370.92840537 C40.45456769 370.9323526 28.46161937 370.94980473 16.46863374 370.9730939 C4.15133089 370.99681949 -8.16594148 371.00927031 -20.48326755 371.01043582 C-27.39725732 371.01135191 -34.31116788 371.0170876 -41.2251358 371.03525543 C-47.72907429 371.05228577 -54.23288908 371.0539 -60.73685265 371.04511642 C-63.12330973 371.04434512 -65.50977484 371.04870097 -67.89621162 371.05857468 C-71.15577963 371.07126941 -74.41481315 371.06543038 -77.67437744 371.05499268 C-78.61719236 371.06304908 -79.56000727 371.07110548 -80.53139234 371.07940602 C-87.5124649 371.02717763 -92.77972236 369.70193173 -98.8125 366 C-103.95328476 360.71641566 -105.51594058 355.2296081 -105.56018066 347.96524048 C-105.54579956 347.0028244 -105.53141846 346.04040833 -105.51660156 345.04882812 C-105.51718567 344.01378143 -105.51776978 342.97873474 -105.51837158 341.912323 C-105.51559988 338.51411615 -105.48455009 335.11680235 -105.453125 331.71875 C-105.44565939 329.35364257 -105.43996797 326.98852893 -105.43597412 324.62341309 C-105.42074317 318.41563672 -105.38148271 312.20823807 -105.3371582 306.00061035 C-105.296151 299.65931304 -105.27795144 293.31795435 -105.2578125 286.9765625 C-105.21498643 274.54670957 -105.14676548 262.11713626 -105.0625 249.6875 C-106.37206665 249.5548172 -107.6816333 249.4221344 -109.03088379 249.28543091 C-110.76343988 249.10723477 -112.49598316 248.928914 -114.22851562 248.75048828 C-115.08995178 248.66354202 -115.95138794 248.57659576 -116.83892822 248.48701477 C-122.53335939 247.89732949 -128.04457674 247.12914655 -133.5625 245.5625 C-134.33255371 245.35004639 -135.10260742 245.13759277 -135.89599609 244.91870117 C-155.82860474 239.15873084 -174.57498764 229.55206945 -190.0625 215.6875 C-191.04734375 214.83414063 -192.0321875 213.98078125 -193.046875 213.1015625 C-219.6028284 189.78599236 -237.23456077 155.01956669 -240.0625 119.6875 C-241.79481677 79.95652562 -232.48093276 41.68649113 -205.0625 11.6875 C-180.6165288 -14.65610366 -150.9876089 -31.50453575 -115.0625 -36.3125 C-114.16789062 -36.44269531 -113.27328125 -36.57289062 -112.3515625 -36.70703125 C-71.57646314 -41.78698549 -30.18474005 -27.35005844 0 0 Z M37.9375 56.6875 C38.12683105 57.32647217 38.31616211 57.96544434 38.51123047 58.6237793 C42.38152007 71.86519972 45.49856964 85.8707357 45.9375 99.6875 C45.97746094 100.74453125 46.01742188 101.8015625 46.05859375 102.890625 C46.2470179 112.60001051 45.15860826 122.07716731 43.9375 131.6875 C43.6075 134.3275 43.2775 136.9675 42.9375 139.6875 C88.1475 139.6875 133.3575 139.6875 179.9375 139.6875 C181.11458691 127.90405869 181.11458691 127.90405869 177.97363281 123.65258789 C174.20893698 121.21594936 170.41272774 119.15883629 166.359375 117.24609375 C165.52440491 116.84187698 164.68943481 116.43766022 163.8291626 116.02119446 C161.11992565 114.7125428 158.40389878 113.41871055 155.6875 112.125 C153.80554015 111.21935783 151.92403181 110.31277681 150.04296875 109.40527344 C145.47458379 107.20400495 140.90093497 105.01397305 136.32495117 102.82855225 C133.15670383 101.3143283 129.99219502 99.79246453 126.828125 98.26953125 C122.93445444 96.39648731 119.03842471 94.52849698 115.140625 92.6640625 C108.35343648 89.41307496 101.58248587 86.12883946 94.81201172 82.8432312 C92.70441329 81.82070568 90.59640694 80.79902586 88.48828125 79.77758789 C82.23130265 76.74524139 75.97623687 73.7092906 69.73126221 70.65228271 C67.09369151 69.36203288 64.45405603 68.07604447 61.81408691 66.79071045 C59.99489016 65.90300444 58.17854745 65.00945697 56.36230469 64.11572266 C50.3051333 61.16982272 44.38817932 58.63500382 37.9375 56.6875 Z M37.9375 154.6875 C35.2975 160.6275 32.6575 166.5675 29.9375 172.6875 C12.77484741 205.03249911 -15.1856641 229.47067261 -49.8125 241.6875 C-60.95919175 245.01912231 -72.35585224 247.23765417 -83.88085938 248.7434082 C-84.5733075 248.83476295 -85.26575562 248.92611771 -85.97918701 249.02024078 C-87.67349705 249.24363065 -89.36798111 249.46569993 -91.0625 249.6875 C-91.17825476 263.04785612 -91.2671451 276.40809333 -91.32156086 289.76884842 C-91.34767531 295.97254372 -91.3831081 302.17589643 -91.43969727 308.37939453 C-91.49394959 314.36404547 -91.5239066 320.3483665 -91.53688622 326.33324432 C-91.54613817 328.61868231 -91.5642048 330.90410186 -91.59115028 333.18939972 C-91.62734932 336.38610619 -91.63244902 339.58144249 -91.63012695 342.77832031 C-91.64810333 343.72706528 -91.66607971 344.67581024 -91.68460083 345.65330505 C-91.66483563 350.92760484 -91.66483563 350.92760484 -88.89030457 355.29119873 C-85.70880854 356.86214426 -83.77323251 357.10729434 -80.25 356.9375 C-79.27417969 356.90140625 -78.29835937 356.8653125 -77.29296875 356.828125 C-76.55691406 356.78171875 -75.82085937 356.7353125 -75.0625 356.6875 C-75.05441315 355.66685959 -75.04632629 354.64621918 -75.03799438 353.59465027 C-74.96057959 343.9858305 -74.8728522 334.37715315 -74.77497292 324.7685194 C-74.7249826 319.8283743 -74.67865282 314.88825087 -74.640625 309.94799805 C-74.60380673 305.18223954 -74.55745625 300.41666114 -74.50443649 295.65105629 C-74.48587413 293.83098821 -74.47077301 292.0108815 -74.45915604 290.19075584 C-74.44232503 287.6454554 -74.41329795 285.10056913 -74.38134766 282.55541992 C-74.37918747 281.79944519 -74.37702728 281.04347046 -74.37480164 280.2645874 C-74.31482242 276.53540625 -74.18492576 274.87113864 -72.0625 271.6875 C-70.22343254 271.30273914 -70.22343254 271.30273914 -67.94967651 271.28877258 C-67.08868347 271.27623444 -66.22769043 271.26369629 -65.34060669 271.2507782 C-64.39402191 271.25221329 -63.44743713 271.25364838 -62.47216797 271.25512695 C-61.47701172 271.2449353 -60.48185547 271.23474365 -59.45654297 271.22424316 C-56.15586831 271.19396568 -52.85548313 271.18482466 -49.5546875 271.17578125 C-47.27067082 271.15894552 -44.98666347 271.14079679 -42.70266724 271.12138367 C-36.68242304 271.07375759 -30.66221664 271.04402982 -24.6418457 271.01794434 C-18.5020399 270.98820231 -12.36236454 270.94165026 -6.22265625 270.89648438 C5.83066111 270.81030785 17.88400522 270.74302651 29.9375 270.6875 C29.94114563 269.84891449 29.94479126 269.01032898 29.94854736 268.14633179 C29.98646585 260.23067974 30.04336218 252.31543809 30.12140274 244.40007591 C30.16085666 240.3309916 30.19305515 236.262123 30.20849609 232.19287109 C30.22367676 228.2633415 30.25814636 224.33440505 30.30580902 220.40513992 C30.32060846 218.90854686 30.3285402 217.4118691 30.32938385 215.91520309 C30.33175981 213.81311083 30.35888479 211.71264949 30.39160156 209.61083984 C30.40492523 207.8188063 30.40492523 207.8188063 30.41851807 205.99057007 C31.19601789 201.04215811 33.32724795 198.06760057 37.09571838 194.8377533 C41.21426133 193.1707119 45.00140382 193.26114283 49.40600586 193.28344727 C50.35294815 193.27658401 51.29989044 193.26972076 52.27552795 193.26264954 C55.40128636 193.24436969 58.52654343 193.24822082 61.65234375 193.25390625 C63.82800968 193.24934501 66.00367416 193.24403961 68.17933655 193.23802185 C72.73802546 193.22908839 77.29653921 193.23151662 81.85522461 193.24145508 C87.69402201 193.25294457 93.53221463 193.23273435 99.37093258 193.20353794 C103.86369155 193.18518231 108.35630543 193.18546717 112.84909248 193.19117546 C115.00165213 193.19132875 117.15422156 193.18527778 119.30674553 193.17288399 C122.31808162 193.15798834 125.32829829 193.16864112 128.33959961 193.18579102 C129.2265451 193.17612305 130.1134906 193.16645508 131.02731323 193.15649414 C136.44641008 193.221043 139.75945901 193.90340696 143.9375 197.6875 C146.52183708 202.01105728 147.31565526 205.20612253 147.33622742 210.21749878 C147.34876556 211.51311234 147.36130371 212.80872589 147.3742218 214.14360046 C147.37304792 215.5669253 147.37158884 216.99024993 147.36987305 218.41357422 C147.37889525 219.92183737 147.38922359 221.43009319 147.40075684 222.93833923 C147.42829934 227.02258388 147.43760759 231.10668929 147.44361091 235.19101477 C147.45300175 239.46318405 147.47920572 243.73524963 147.50361633 248.00735474 C147.54726549 256.09259966 147.57582218 264.17782444 147.59893972 272.26315129 C147.62599988 281.46994644 147.66991089 290.67663719 147.71522844 299.88335776 C147.80805203 318.8180167 147.87974324 337.75270326 147.9375 356.6875 C149.66524308 356.79642951 151.39500948 356.87351092 153.125 356.9375 C154.08792969 356.98390625 155.05085937 357.0303125 156.04296875 357.078125 C159.88665742 356.55940858 161.38252698 355.60668087 163.9375 352.6875 C164.42920412 349.82279387 164.59371664 347.55207508 164.53877258 344.68963623 C164.54304471 343.87767516 164.54731683 343.0657141 164.55171841 342.22914815 C164.55996318 339.50474565 164.53243989 336.78187814 164.50512695 334.05761719 C164.5037168 332.10631344 164.50450782 330.15500704 164.50733948 328.20370483 C164.50877631 322.90222628 164.47934303 317.60131132 164.44446969 312.29996395 C164.41325083 306.76130454 164.41027897 301.22263275 164.40434265 295.68389893 C164.38879108 285.19369777 164.34774471 274.7037566 164.2975952 264.21367002 C164.23130284 250.03974354 164.20427784 235.86574616 164.17508411 221.6917038 C164.1280439 199.35677439 164.02844012 177.02239367 163.9375 154.6875 C122.3575 154.6875 80.7775 154.6875 37.9375 154.6875 Z M79.9375 206.6875 C79.9375 210.6475 79.9375 214.6075 79.9375 218.6875 C85.8775 218.6875 91.8175 218.6875 97.9375 218.6875 C97.9375 214.7275 97.9375 210.7675 97.9375 206.6875 C91.9975 206.6875 86.0575 206.6875 79.9375 206.6875 Z M-25.0625 284.6875 C-25.0625 288.6475 -25.0625 292.6075 -25.0625 296.6875 C-19.1225 296.6875 -13.1825 296.6875 -7.0625 296.6875 C-7.0625 292.7275 -7.0625 288.7675 -7.0625 284.6875 C-13.0025 284.6875 -18.9425 284.6875 -25.0625 284.6875 Z M79.9375 284.6875 C79.9375 288.6475 79.9375 292.6075 79.9375 296.6875 C85.8775 296.6875 91.8175 296.6875 97.9375 296.6875 C97.9375 292.7275 97.9375 288.7675 97.9375 284.6875 C91.9975 284.6875 86.0575 284.6875 79.9375 284.6875 Z " fill="#9AC8FE" transform="translate(279.0625,89.3125)"/>
<path d="M0 0 C13.18439655 12.26191686 23.57149798 25.69508511 31.9375 41.6875 C33.03191406 41.42066406 34.12632812 41.15382813 35.25390625 40.87890625 C41.25554977 40.15513615 45.67498804 42.92089304 50.875 45.625 C53.10781256 46.74140628 55.34089985 47.85726321 57.57421875 48.97265625 C58.77539644 49.58055894 59.97640195 50.18880197 61.17724609 50.79736328 C67.11015267 53.79291757 73.10483223 56.66220772 79.09072876 59.54989624 C82.61512682 61.25195065 86.13541706 62.96246171 89.65625 64.671875 C100.8881465 70.12176758 112.13260405 75.54558129 123.37695312 80.96972656 C126.97552015 82.70584269 130.57376232 84.44263004 134.171875 86.1796875 C134.77207458 86.46938416 135.37227417 86.75908081 135.99066162 87.05755615 C138.99793895 88.5091747 142.00468545 89.96186957 145.01074219 91.41601562 C150.66334502 94.14910841 156.31949052 96.87363817 161.99035645 99.56866455 C164.66417538 100.84000396 167.33570881 102.11610518 170.00708008 103.39257812 C171.27922116 103.99880395 172.55247384 104.60270344 173.8269043 105.20410156 C175.59574811 106.0389902 177.36046272 106.8826101 179.125 107.7265625 C180.12917969 108.20303223 181.13335937 108.67950195 182.16796875 109.17041016 C188.26391163 112.50963698 191.81900306 116.08650628 193.9375 122.6875 C194.47303108 126.41529837 194.49839984 130.05193475 194.4375 133.8125 C194.45296875 134.77542969 194.4684375 135.73835937 194.484375 136.73046875 C194.44507951 143.87242397 193.17128814 147.33821943 188.1875 152.5 C184.87252016 154.24957269 181.65658417 154.27719618 177.9375 154.6875 C177.94303076 155.72025779 177.94856152 156.75301558 177.95425987 157.81706905 C178.08750596 182.95589475 178.18607754 208.09467461 178.24837303 233.23377895 C178.27930008 245.39092503 178.32145901 257.54783772 178.39013672 269.70483398 C178.44997347 280.30190646 178.48865751 290.89880988 178.50203097 301.4960466 C178.50984739 307.10636166 178.52819443 312.71619313 178.57188034 318.32635307 C178.6126885 323.60989477 178.62515227 328.89275495 178.61614609 334.17643929 C178.61779304 336.11260307 178.62967888 338.04879028 178.65273285 339.9848175 C178.85254859 357.63476922 178.85254859 357.63476922 173.58005714 364.16243076 C168.64037316 368.7487918 163.27307154 370.80781024 156.5789299 370.81892776 C155.7085338 370.82276891 154.8381377 370.82661005 153.94136596 370.8305676 C152.98962816 370.82970112 152.03789035 370.82883463 151.05731201 370.82794189 C150.0427343 370.83091302 149.02815659 370.83388414 147.9828341 370.8369453 C144.57285767 370.84563784 141.16291633 370.84714102 137.75292969 370.84863281 C135.31214828 370.85326058 132.8713676 370.85828519 130.43058777 370.86367798 C123.79206811 370.87680776 117.15356219 370.88328476 110.51503277 370.88768864 C106.36874705 370.8904525 102.22246365 370.89469012 98.0761795 370.89919281 C86.59304323 370.9113845 75.10990881 370.92168395 63.6267662 370.9250679 C62.52459287 370.92539725 62.52459287 370.92539725 61.40015341 370.92573325 C60.66362744 370.92595153 59.92710146 370.92616981 59.16825652 370.9263947 C57.67581034 370.92683816 56.18336415 370.92728473 54.69091797 370.92773438 C53.95061538 370.9279558 53.21031279 370.92817723 52.44757679 370.92840537 C40.45456769 370.9323526 28.46161937 370.94980473 16.46863374 370.9730939 C4.15133089 370.99681949 -8.16594148 371.00927031 -20.48326755 371.01043582 C-27.39725732 371.01135191 -34.31116788 371.0170876 -41.2251358 371.03525543 C-47.72907429 371.05228577 -54.23288908 371.0539 -60.73685265 371.04511642 C-63.12330973 371.04434512 -65.50977484 371.04870097 -67.89621162 371.05857468 C-71.15577963 371.07126941 -74.41481315 371.06543038 -77.67437744 371.05499268 C-78.61719236 371.06304908 -79.56000727 371.07110548 -80.53139234 371.07940602 C-87.5124649 371.02717763 -92.77972236 369.70193173 -98.8125 366 C-103.95328476 360.71641566 -105.51594058 355.2296081 -105.56018066 347.96524048 C-105.54579956 347.0028244 -105.53141846 346.04040833 -105.51660156 345.04882812 C-105.51718567 344.01378143 -105.51776978 342.97873474 -105.51837158 341.912323 C-105.51559988 338.51411615 -105.48455009 335.11680235 -105.453125 331.71875 C-105.44565939 329.35364257 -105.43996797 326.98852893 -105.43597412 324.62341309 C-105.42074317 318.41563672 -105.38148271 312.20823807 -105.3371582 306.00061035 C-105.296151 299.65931304 -105.27795144 293.31795435 -105.2578125 286.9765625 C-105.21498643 274.54670957 -105.14676548 262.11713626 -105.0625 249.6875 C-106.37206665 249.5548172 -107.6816333 249.4221344 -109.03088379 249.28543091 C-110.76343988 249.10723477 -112.49598316 248.928914 -114.22851562 248.75048828 C-115.08995178 248.66354202 -115.95138794 248.57659576 -116.83892822 248.48701477 C-122.53335939 247.89732949 -128.04457674 247.12914655 -133.5625 245.5625 C-134.33255371 245.35004639 -135.10260742 245.13759277 -135.89599609 244.91870117 C-155.82860474 239.15873084 -174.57498764 229.55206945 -190.0625 215.6875 C-191.04734375 214.83414063 -192.0321875 213.98078125 -193.046875 213.1015625 C-219.6028284 189.78599236 -237.23456077 155.01956669 -240.0625 119.6875 C-241.79481677 79.95652562 -232.48093276 41.68649113 -205.0625 11.6875 C-180.6165288 -14.65610366 -150.9876089 -31.50453575 -115.0625 -36.3125 C-114.16789062 -36.44269531 -113.27328125 -36.57289062 -112.3515625 -36.70703125 C-71.57646314 -41.78698549 -30.18474005 -27.35005844 0 0 Z M-187.0625 12.6875 C-187.80886719 13.35136719 -188.55523437 14.01523438 -189.32421875 14.69921875 C-210.49587391 34.49664882 -225.0113668 65.82631924 -226.18676758 94.74487305 C-227.09948032 134.5001536 -217.44190563 168.17499255 -189.68652344 197.58300781 C-168.47059387 219.28538912 -137.31545478 235.50854938 -106.51171875 235.890625 C-67.30066488 236.28815409 -35.39458675 226.06586613 -6.0625 199.6875 C-5.39863281 199.09582031 -4.73476563 198.50414062 -4.05078125 197.89453125 C19.05206451 176.08415239 32.0828764 142.70336105 33.19140625 111.4140625 C33.51232093 97.67618283 32.83353555 84.89520978 28.9375 71.6875 C28.62401611 70.61048828 28.62401611 70.61048828 28.30419922 69.51171875 C23.62052622 53.93455912 16.1704451 39.35257113 5.9375 26.6875 C5.49535156 26.13465332 5.05320312 25.58180664 4.59765625 25.01220703 C-1.93610095 16.90034385 -8.67592092 9.94396103 -17.0625 3.6875 C-18.31740234 2.69363281 -18.31740234 2.69363281 -19.59765625 1.6796875 C-42.74056648 -16.12255114 -69.90521367 -23.41530268 -98.75 -23.5625 C-99.87801025 -23.57176514 -101.00602051 -23.58103027 -102.16821289 -23.59057617 C-134.49306696 -23.47019884 -163.67023079 -8.81001909 -187.0625 12.6875 Z M37.9375 56.6875 C38.12683105 57.32647217 38.31616211 57.96544434 38.51123047 58.6237793 C42.38152007 71.86519972 45.49856964 85.8707357 45.9375 99.6875 C45.97746094 100.74453125 46.01742188 101.8015625 46.05859375 102.890625 C46.2470179 112.60001051 45.15860826 122.07716731 43.9375 131.6875 C43.6075 134.3275 43.2775 136.9675 42.9375 139.6875 C88.1475 139.6875 133.3575 139.6875 179.9375 139.6875 C181.11458691 127.90405869 181.11458691 127.90405869 177.97363281 123.65258789 C174.20893698 121.21594936 170.41272774 119.15883629 166.359375 117.24609375 C165.52440491 116.84187698 164.68943481 116.43766022 163.8291626 116.02119446 C161.11992565 114.7125428 158.40389878 113.41871055 155.6875 112.125 C153.80554015 111.21935783 151.92403181 110.31277681 150.04296875 109.40527344 C145.47458379 107.20400495 140.90093497 105.01397305 136.32495117 102.82855225 C133.15670383 101.3143283 129.99219502 99.79246453 126.828125 98.26953125 C122.93445444 96.39648731 119.03842471 94.52849698 115.140625 92.6640625 C108.35343648 89.41307496 101.58248587 86.12883946 94.81201172 82.8432312 C92.70441329 81.82070568 90.59640694 80.79902586 88.48828125 79.77758789 C82.23130265 76.74524139 75.97623687 73.7092906 69.73126221 70.65228271 C67.09369151 69.36203288 64.45405603 68.07604447 61.81408691 66.79071045 C59.99489016 65.90300444 58.17854745 65.00945697 56.36230469 64.11572266 C50.3051333 61.16982272 44.38817932 58.63500382 37.9375 56.6875 Z M37.9375 154.6875 C35.2975 160.6275 32.6575 166.5675 29.9375 172.6875 C12.77484741 205.03249911 -15.1856641 229.47067261 -49.8125 241.6875 C-60.95919175 245.01912231 -72.35585224 247.23765417 -83.88085938 248.7434082 C-84.5733075 248.83476295 -85.26575562 248.92611771 -85.97918701 249.02024078 C-87.67349705 249.24363065 -89.36798111 249.46569993 -91.0625 249.6875 C-91.17825476 263.04785612 -91.2671451 276.40809333 -91.32156086 289.76884842 C-91.34767531 295.97254372 -91.3831081 302.17589643 -91.43969727 308.37939453 C-91.49394959 314.36404547 -91.5239066 320.3483665 -91.53688622 326.33324432 C-91.54613817 328.61868231 -91.5642048 330.90410186 -91.59115028 333.18939972 C-91.62734932 336.38610619 -91.63244902 339.58144249 -91.63012695 342.77832031 C-91.64810333 343.72706528 -91.66607971 344.67581024 -91.68460083 345.65330505 C-91.66483563 350.92760484 -91.66483563 350.92760484 -88.89030457 355.29119873 C-85.70880854 356.86214426 -83.77323251 357.10729434 -80.25 356.9375 C-79.27417969 356.90140625 -78.29835937 356.8653125 -77.29296875 356.828125 C-76.55691406 356.78171875 -75.82085937 356.7353125 -75.0625 356.6875 C-75.05441315 355.66685959 -75.04632629 354.64621918 -75.03799438 353.59465027 C-74.96057959 343.9858305 -74.8728522 334.37715315 -74.77497292 324.7685194 C-74.7249826 319.8283743 -74.67865282 314.88825087 -74.640625 309.94799805 C-74.60380673 305.18223954 -74.55745625 300.41666114 -74.50443649 295.65105629 C-74.48587413 293.83098821 -74.47077301 292.0108815 -74.45915604 290.19075584 C-74.44232503 287.6454554 -74.41329795 285.10056913 -74.38134766 282.55541992 C-74.37918747 281.79944519 -74.37702728 281.04347046 -74.37480164 280.2645874 C-74.31482242 276.53540625 -74.18492576 274.87113864 -72.0625 271.6875 C-70.22343254 271.30273914 -70.22343254 271.30273914 -67.94967651 271.28877258 C-67.08868347 271.27623444 -66.22769043 271.26369629 -65.34060669 271.2507782 C-64.39402191 271.25221329 -63.44743713 271.25364838 -62.47216797 271.25512695 C-61.47701172 271.2449353 -60.48185547 271.23474365 -59.45654297 271.22424316 C-56.15586831 271.19396568 -52.85548313 271.18482466 -49.5546875 271.17578125 C-47.27067082 271.15894552 -44.98666347 271.14079679 -42.70266724 271.12138367 C-36.68242304 271.07375759 -30.66221664 271.04402982 -24.6418457 271.01794434 C-18.5020399 270.98820231 -12.36236454 270.94165026 -6.22265625 270.89648438 C5.83066111 270.81030785 17.88400522 270.74302651 29.9375 270.6875 C29.94114563 269.84891449 29.94479126 269.01032898 29.94854736 268.14633179 C29.98646585 260.23067974 30.04336218 252.31543809 30.12140274 244.40007591 C30.16085666 240.3309916 30.19305515 236.262123 30.20849609 232.19287109 C30.22367676 228.2633415 30.25814636 224.33440505 30.30580902 220.40513992 C30.32060846 218.90854686 30.3285402 217.4118691 30.32938385 215.91520309 C30.33175981 213.81311083 30.35888479 211.71264949 30.39160156 209.61083984 C30.40492523 207.8188063 30.40492523 207.8188063 30.41851807 205.99057007 C31.19601789 201.04215811 33.32724795 198.06760057 37.09571838 194.8377533 C41.21426133 193.1707119 45.00140382 193.26114283 49.40600586 193.28344727 C50.35294815 193.27658401 51.29989044 193.26972076 52.27552795 193.26264954 C55.40128636 193.24436969 58.52654343 193.24822082 61.65234375 193.25390625 C63.82800968 193.24934501 66.00367416 193.24403961 68.17933655 193.23802185 C72.73802546 193.22908839 77.29653921 193.23151662 81.85522461 193.24145508 C87.69402201 193.25294457 93.53221463 193.23273435 99.37093258 193.20353794 C103.86369155 193.18518231 108.35630543 193.18546717 112.84909248 193.19117546 C115.00165213 193.19132875 117.15422156 193.18527778 119.30674553 193.17288399 C122.31808162 193.15798834 125.32829829 193.16864112 128.33959961 193.18579102 C129.2265451 193.17612305 130.1134906 193.16645508 131.02731323 193.15649414 C136.44641008 193.221043 139.75945901 193.90340696 143.9375 197.6875 C146.52183708 202.01105728 147.31565526 205.20612253 147.33622742 210.21749878 C147.34876556 211.51311234 147.36130371 212.80872589 147.3742218 214.14360046 C147.37304792 215.5669253 147.37158884 216.99024993 147.36987305 218.41357422 C147.37889525 219.92183737 147.38922359 221.43009319 147.40075684 222.93833923 C147.42829934 227.02258388 147.43760759 231.10668929 147.44361091 235.19101477 C147.45300175 239.46318405 147.47920572 243.73524963 147.50361633 248.00735474 C147.54726549 256.09259966 147.57582218 264.17782444 147.59893972 272.26315129 C147.62599988 281.46994644 147.66991089 290.67663719 147.71522844 299.88335776 C147.80805203 318.8180167 147.87974324 337.75270326 147.9375 356.6875 C149.66524308 356.79642951 151.39500948 356.87351092 153.125 356.9375 C154.08792969 356.98390625 155.05085937 357.0303125 156.04296875 357.078125 C159.88665742 356.55940858 161.38252698 355.60668087 163.9375 352.6875 C164.42920412 349.82279387 164.59371664 347.55207508 164.53877258 344.68963623 C164.54304471 343.87767516 164.54731683 343.0657141 164.55171841 342.22914815 C164.55996318 339.50474565 164.53243989 336.78187814 164.50512695 334.05761719 C164.5037168 332.10631344 164.50450782 330.15500704 164.50733948 328.20370483 C164.50877631 322.90222628 164.47934303 317.60131132 164.44446969 312.29996395 C164.41325083 306.76130454 164.41027897 301.22263275 164.40434265 295.68389893 C164.38879108 285.19369777 164.34774471 274.7037566 164.2975952 264.21367002 C164.23130284 250.03974354 164.20427784 235.86574616 164.17508411 221.6917038 C164.1280439 199.35677439 164.02844012 177.02239367 163.9375 154.6875 C122.3575 154.6875 80.7775 154.6875 37.9375 154.6875 Z M79.9375 206.6875 C79.9375 210.6475 79.9375 214.6075 79.9375 218.6875 C85.8775 218.6875 91.8175 218.6875 97.9375 218.6875 C97.9375 214.7275 97.9375 210.7675 97.9375 206.6875 C91.9975 206.6875 86.0575 206.6875 79.9375 206.6875 Z M-25.0625 284.6875 C-25.0625 288.6475 -25.0625 292.6075 -25.0625 296.6875 C-19.1225 296.6875 -13.1825 296.6875 -7.0625 296.6875 C-7.0625 292.7275 -7.0625 288.7675 -7.0625 284.6875 C-13.0025 284.6875 -18.9425 284.6875 -25.0625 284.6875 Z M79.9375 284.6875 C79.9375 288.6475 79.9375 292.6075 79.9375 296.6875 C85.8775 296.6875 91.8175 296.6875 97.9375 296.6875 C97.9375 292.7275 97.9375 288.7675 97.9375 284.6875 C91.9975 284.6875 86.0575 284.6875 79.9375 284.6875 Z " fill="#1E81CE" transform="translate(279.0625,89.3125)"/>
<path d="M0 0 C2.56929328 2.02004059 3.84486286 3.20817265 4.48101807 6.45513916 C4.4676944 7.82747711 4.4676944 7.82747711 4.45410156 9.22753906 C4.45379944 10.26831604 4.45349731 11.30909302 4.45318604 12.38140869 C4.43254089 13.49820007 4.41189575 14.61499146 4.390625 15.765625 C4.38496521 16.91415955 4.37930542 18.06269409 4.37347412 19.24603271 C4.35108331 22.91444574 4.30087942 26.58188217 4.25 30.25 C4.22993861 32.73696506 4.21168722 35.22394543 4.1953125 37.7109375 C4.15120955 43.80762489 4.08426949 49.90374267 4 56 C8.58780002 52.070416 13.0009619 48.10763255 17.12890625 43.6875 C18.01900391 42.75808594 18.90910156 41.82867187 19.82617188 40.87109375 C21.20440641 39.42498042 22.58242632 37.97846587 23.93920898 36.51220703 C25.27497623 35.07346895 26.63915061 33.66127015 28.00390625 32.25 C29.19222046 30.98929688 29.19222046 30.98929688 30.40454102 29.703125 C33 28 33 28 36.68725586 28.109375 C40 29 40 29 42 31 C42.62866211 34.15551758 42.62866211 34.15551758 42 38 C39.67529509 40.92277529 36.8241699 43.15569935 33.94140625 45.51171875 C32.25157705 46.983978 30.5677741 48.46317665 28.8894043 49.94848633 C27.57738541 51.10738876 27.57738541 51.10738876 26.23886108 52.28970337 C9.11356372 67.20947391 9.11356372 67.20947391 2.11955261 87.97499084 C1.87456681 95.70933917 2.61388468 103.39583559 4 111 C16.09690101 113.3695894 30.77420595 115.32738191 41.64056396 108.28985596 C52.8037583 99.58365969 62.38981514 88.61961782 71.420578 77.76759338 C76.2381122 72.14173226 76.2381122 72.14173226 80.3269043 71.38110352 C83.76380732 72.17684278 85.05780948 73.04787041 87 76 C87.21866216 79.20704508 86.66316227 81.12033624 84.71972656 83.69824219 C79.55053482 89.51934865 74.09205268 95.02219979 68.5625 100.5 C67.64017578 101.4178125 66.71785156 102.335625 65.76757812 103.28125 C63.51400101 105.52315055 61.25810925 107.762666 59 110 C59.64257751 110.00364563 60.28515503 110.00729126 60.94720459 110.01104736 C67.63086204 110.05283407 74.31383033 110.12215289 80.99707031 110.20751953 C83.49179189 110.23575799 85.98660342 110.25695812 88.48144531 110.27099609 C92.06622466 110.29238499 95.64991918 110.33901708 99.234375 110.390625 C100.35116638 110.39185364 101.46795776 110.39308228 102.61859131 110.39434814 C103.65936829 110.41406677 104.70014526 110.4337854 105.77246094 110.45410156 C107.14479889 110.46742523 107.14479889 110.46742523 108.54486084 110.48101807 C111.78632765 111.16621862 113.01251028 112.38976205 115 115 C114.9375 118.625 114.9375 118.625 114 122 C110.7224894 124.18500707 109.69489949 124.26351236 105.88598633 124.31884766 C104.84513382 124.33871735 103.80428131 124.35858704 102.73188782 124.37905884 C101.60993515 124.39061005 100.48798248 124.40216125 99.33203125 124.4140625 C98.18208176 124.43342865 97.03213226 124.4527948 95.84733582 124.4727478 C92.16913301 124.53259761 88.490899 124.57895106 84.8125 124.625 C82.32094978 124.66317476 79.82941283 124.70222619 77.33789062 124.7421875 C71.22537806 124.83830362 65.11278579 124.92333538 59 125 C59.84820312 125.81678223 60.69640625 126.63356445 61.5703125 127.47509766 C64.71635322 130.51245347 67.84242451 133.56969447 70.96289062 136.63330078 C72.31560496 137.95586113 73.673658 139.27298407 75.03710938 140.58447266 C76.99741427 142.47190907 78.93761448 144.37814211 80.875 146.2890625 C81.48746582 146.87056061 82.09993164 147.45205872 82.73095703 148.05117798 C85.54522523 150.86317106 86.88002748 152.24554876 87.51953125 156.26708984 C87 159 87 159 84.8125 161.4375 C82 163 82 163 79.4375 162.9375 C76.84656987 161.94098841 75.03608675 160.88526551 73 159 C73 158.34 73 157.68 73 157 C72.40427185 156.72893433 71.8085437 156.45786865 71.19476318 156.17858887 C69.02972331 155.01596143 67.6151363 153.86848412 65.88378906 152.14257812 C65.30348938 151.56858276 64.7231897 150.9945874 64.12530518 150.40319824 C63.20476349 149.47658386 63.20476349 149.47658386 62.265625 148.53125 C61.62759949 147.89513794 60.98957397 147.25902588 60.33221436 146.6036377 C58.98838426 145.26116613 57.64706671 143.91617539 56.30810547 142.56884766 C54.25057535 140.50057835 52.18255951 138.44322672 50.11328125 136.38671875 C48.80925375 135.08137029 47.50584644 133.7754019 46.203125 132.46875 C45.58133362 131.85100708 44.95954224 131.23326416 44.31890869 130.59680176 C40 126.22993073 40 126.22993073 40 124 C28.12 124 16.24 124 4 124 C0.77493766 145.25078509 0.77493766 145.25078509 8.66259766 164.17626953 C16.93995418 173.78809465 26.50418672 182.38691084 36.27156067 190.45973206 C41.75740344 195.13588786 41.75740344 195.13588786 43.07226562 199.81933594 C43 203 43 203 42 205.4375 C40 207 40 207 36.80053711 207.48046875 C31.60308451 206.82340016 29.68132948 204.58369708 26.19140625 200.875 C25.57982162 200.25351074 24.968237 199.63202148 24.33811951 198.99169922 C22.39581807 197.01033194 20.47931226 195.00600545 18.5625 193 C17.24707411 191.64945077 15.93003314 190.30047261 14.61132812 188.953125 C11.38855359 185.65332863 8.18869362 182.33272773 5 179 C4.99120064 179.96386627 4.99120064 179.96386627 4.98222351 180.94720459 C4.91832604 187.63078452 4.83391559 194.3138813 4.73754883 200.99707031 C4.70427931 203.49179721 4.67625377 205.98659975 4.65356445 208.48144531 C4.6200565 212.06608335 4.56774089 215.65002692 4.51171875 219.234375 C4.50532883 220.35116638 4.4989389 221.46795776 4.49235535 222.61859131 C4.47256119 223.65936829 4.45276703 224.70014526 4.43237305 225.77246094 C4.42126999 226.68735291 4.41016693 227.60224487 4.39872742 228.54486084 C3.91914833 231.4978391 3.10238289 232.88656182 1 235 C-4.94971063 235.74371383 -4.94971063 235.74371383 -7.69746399 233.79801941 C-9.46097132 231.36367566 -9.36189487 229.7859139 -9.34057617 226.79418945 C-9.34034958 225.73331619 -9.34012299 224.67244293 -9.33988953 223.579422 C-9.32440567 222.43559555 -9.30892181 221.2917691 -9.29296875 220.11328125 C-9.28872391 218.94113571 -9.28447906 217.76899017 -9.28010559 216.56132507 C-9.26329072 212.81148466 -9.22563232 209.06217843 -9.1875 205.3125 C-9.17245684 202.77279421 -9.1587678 200.23308001 -9.14648438 197.69335938 C-9.11337796 191.46205681 -9.06315028 185.23106656 -9 179 C-13.5800765 182.9296691 -18.00674512 186.89427641 -22.1640625 191.27734375 C-23.05867188 192.20224609 -23.95328125 193.12714844 -24.875 194.08007812 C-26.26004156 195.51922287 -27.64491267 196.95863359 -29.01464844 198.41235352 C-30.36277798 199.83921115 -31.7319392 201.2461048 -33.1015625 202.65234375 C-33.89900879 203.48757568 -34.69645508 204.32280762 -35.51806641 205.18334961 C-38.60033167 207.43941255 -40.25932792 207.49642144 -44 207 C-46.375 205.3125 -46.375 205.3125 -48 203 C-48.31858826 200.57325745 -48.31858826 200.57325745 -48 198 C-46.56410217 196.198349 -46.56410217 196.198349 -44.52758789 194.51538086 C-43.77017807 193.86990799 -43.01276825 193.22443512 -42.23240662 192.55940247 C-41.404189 191.86819809 -40.57597137 191.17699371 -39.72265625 190.46484375 C-17.34359934 172.40489015 -17.34359934 172.40489015 -7.04951477 146.94865417 C-6.80418327 139.23541489 -7.56685179 131.57364759 -9 124 C-21.08593836 121.63255801 -35.7823029 119.66342987 -46.63342285 126.71014404 C-55.18102031 133.39907859 -62.4554011 141.44371561 -69.64501953 149.53369141 C-70.41993744 150.40361221 -71.19485535 151.27353302 -71.99325562 152.16981506 C-73.45596772 153.83597873 -74.8953859 155.52296844 -76.30728149 157.23240662 C-81.13267683 162.86810419 -81.13267683 162.86810419 -85.86425781 163.58764648 C-89 163 -89 163 -90.9375 161.875 C-92.63262266 158.88360708 -92.64407189 157.41358101 -92 154 C-87.10479175 147.21551542 -80.58211546 141.39890246 -74.6875 135.5 C-73.78193359 134.5821875 -72.87636719 133.664375 -71.94335938 132.71875 C-71.07904297 131.8525 -70.21472656 130.98625 -69.32421875 130.09375 C-68.54135498 129.30677734 -67.75849121 128.51980469 -66.9519043 127.70898438 C-65 126 -65 126 -63 126 C-63 125.34 -63 124.68 -63 124 C-63.66985428 124.00666183 -64.33970856 124.01332367 -65.02986145 124.02018738 C-71.98869029 124.0864514 -78.94742981 124.13176348 -85.90649414 124.16479492 C-88.50516397 124.17990063 -91.10380823 124.20038634 -93.70239258 124.22631836 C-97.43316958 124.26262243 -101.16361013 124.27970858 -104.89453125 124.29296875 C-106.64308159 124.31619453 -106.64308159 124.31619453 -108.42695618 124.33988953 C-109.50785019 124.34011612 -110.5887442 124.34034271 -111.70239258 124.34057617 C-112.65503494 124.34723801 -113.60767731 124.35389984 -114.58918762 124.36076355 C-117 124 -117 124 -118.80375671 122.69746399 C-120.82716426 119.82625753 -120.42205231 117.37641849 -120 114 C-117.08735625 111.11233412 -114.8929966 110.61748758 -110.86425781 110.56762695 C-109.84350159 110.54783279 -108.82274536 110.52803864 -107.77105713 110.50764465 C-106.67613953 110.50125473 -105.58122192 110.49486481 -104.453125 110.48828125 C-103.3267865 110.47033005 -102.200448 110.45237885 -101.03997803 110.43388367 C-97.44335674 110.37971205 -93.84686869 110.34586212 -90.25 110.3125 C-87.81117935 110.27933307 -85.37237629 110.24484401 -82.93359375 110.20898438 C-76.95584864 110.12398155 -70.97808643 110.05566055 -65 110 C-65.78238037 109.22285645 -66.56476074 108.44571289 -67.37084961 107.64501953 C-70.26757887 104.76636399 -73.16101896 101.88442178 -76.0534668 99.00146484 C-77.30680012 97.75316629 -78.56102868 96.50576593 -79.81616211 95.25927734 C-81.61807502 93.46946736 -83.41676427 91.67647255 -85.21484375 89.8828125 C-85.77840073 89.32441681 -86.3419577 88.76602112 -86.92259216 88.19070435 C-91.89637039 83.21764793 -91.89637039 83.21764793 -92.25 79.0625 C-92 76 -92 76 -90.875 74.125 C-87.90079585 72.34047751 -86.43683798 72.35154 -83 73 C-78.07440331 76.22239492 -74.28779143 80.76525564 -70.5579071 85.25042725 C-55.93035577 103.65461763 -55.93035577 103.65461763 -35.0234375 112.1875 C-26.33202303 112.81401795 -17.61902776 112.17092609 -9 111 C-6.63255801 98.91406164 -4.66342987 84.2176971 -11.71014404 73.36657715 C-18.39907859 64.81897969 -26.44371561 57.5445989 -34.53369141 50.35498047 C-35.83857262 49.19260361 -35.83857262 49.19260361 -37.16981506 48.00674438 C-38.83597873 46.54403228 -40.52296844 45.1046141 -42.23240662 43.69271851 C-47.86810419 38.86732317 -47.86810419 38.86732317 -48.58764648 34.13574219 C-48 31 -48 31 -46.875 29.0625 C-43.9904755 27.42793612 -42.29236305 27.54039756 -39 28 C-36.36761261 29.79745326 -34.26109091 32.04053116 -32.0703125 34.34375 C-31.43511688 34.9874353 -30.79992126 35.63112061 -30.14547729 36.29431152 C-28.12411585 38.34920303 -26.12463076 40.42397778 -24.125 42.5 C-22.75660057 43.89849904 -21.38682369 45.29565171 -20.015625 46.69140625 C-16.6609122 50.11219853 -13.32566711 53.5509726 -10 57 C-9.99120064 55.99521858 -9.99120064 55.99521858 -9.98222351 54.97013855 C-9.9183902 48.01097968 -9.83399672 41.05228759 -9.73754883 34.09350586 C-9.70425257 31.49493557 -9.67623546 28.89629213 -9.65356445 26.29760742 C-9.62010549 22.56657681 -9.56779271 18.83621939 -9.51171875 15.10546875 C-9.50532883 13.93976852 -9.4989389 12.7740683 -9.49235535 11.57304382 C-9.47256119 10.49214981 -9.45276703 9.4112558 -9.43237305 8.29760742 C-9.42126999 7.34496506 -9.41016693 6.39232269 -9.39872742 5.41081238 C-8.49682225 -0.04234696 -5.02863563 -0.71837652 0 0 Z " fill="#1F82CE" transform="translate(185,78)"/>
<path d="M0 0 C7.59 0 15.18 0 23 0 C23.25 8.625 23.25 8.625 23.29785156 11.30712891 C23.52463173 16.61020402 24.46926502 19.81208442 28 24 C33.03284256 27.35522837 38.9023577 26.32734215 44.8125 26.3125 C46.08416016 26.32861328 47.35582031 26.34472656 48.66601562 26.36132812 C49.89642578 26.36197266 51.12683594 26.36261719 52.39453125 26.36328125 C53.51706299 26.36626221 54.63959473 26.36924316 55.79614258 26.37231445 C59.49946806 25.94195772 61.86054035 24.99943082 65 23 C66.96766263 20.22405033 67.27801878 17.80887 67.4140625 14.453125 C67.44967285 13.69161133 67.4852832 12.93009766 67.52197266 12.14550781 C67.57297119 10.71223145 67.57297119 10.71223145 67.625 9.25 C67.810625 4.67125 67.810625 4.67125 68 0 C75.92 0 83.84 0 92 0 C92 24.09 92 48.18 92 73 C61.64 73 31.28 73 0 73 C0 48.91 0 24.82 0 0 Z " fill="#99C8FE" transform="translate(322,373)"/>
<path d="M0 0 C7.59 0 15.18 0 23 0 C23.3125 9.1875 23.3125 9.1875 23.38793945 12.05541992 C23.59298027 16.75539455 23.83445371 20.26943629 27 24 C32.26816817 27.40934549 38.9072471 26.32768955 44.9375 26.3125 C46.85079102 26.33666992 46.85079102 26.33666992 48.80273438 26.36132812 C50.64641602 26.36229492 50.64641602 26.36229492 52.52734375 26.36328125 C53.64874756 26.36626221 54.77015137 26.36924316 55.92553711 26.37231445 C60.30769024 25.84163999 62.94850517 24.25111637 65.76953125 20.89453125 C67.49518043 16.835147 67.56588728 13.05571867 67.6875 8.6875 C67.790625 5.820625 67.89375 2.95375 68 0 C75.59 0 83.18 0 91 0 C91 24.09 91 48.18 91 73 C60.97 73 30.94 73 0 73 C0 48.91 0 24.82 0 0 Z " fill="#9AC8FE" transform="translate(218,373)"/>
<path d="M0 0 C0.9583374 0.00523682 1.9166748 0.01047363 2.90405273 0.01586914 C4.45576172 0.02070313 4.45576172 0.02070313 6.03881836 0.02563477 C7.12743164 0.03401367 8.21604492 0.04239258 9.33764648 0.05102539 C10.97636719 0.05779297 10.97636719 0.05779297 12.64819336 0.06469727 C15.35723144 0.07652713 18.06616248 0.09300996 20.77514648 0.11352539 C20.78916504 0.98303833 20.78916504 0.98303833 20.8034668 1.87011719 C20.85738718 4.51459485 20.94098778 7.15734432 21.02514648 9.80102539 C21.03932617 10.71303711 21.05350586 11.62504883 21.06811523 12.56469727 C21.22523312 16.88543923 21.36987603 19.46360996 23.69702148 23.19555664 C28.61294153 27.73261819 35.17708838 26.33818384 41.52514648 26.36352539 C42.80131836 26.38415039 44.07749023 26.40477539 45.39233398 26.42602539 C46.62725586 26.43118164 47.86217773 26.43633789 49.13452148 26.44165039 C50.26341797 26.45099609 51.39231445 26.4603418 52.55541992 26.4699707 C56.2764704 26.05802547 58.62489321 25.12401135 61.77514648 23.11352539 C63.74280911 20.33757572 64.05316527 17.92239539 64.18920898 14.56665039 C64.22788086 13.72231445 64.26655273 12.87797852 64.30639648 12.00805664 C64.33733398 11.13536133 64.36827148 10.26266602 64.40014648 9.36352539 C64.43881836 8.47536133 64.47749023 7.58719727 64.51733398 6.67211914 C64.61135521 4.48612559 64.69700792 2.30013477 64.77514648 0.11352539 C68.40007982 0.05564756 72.02489506 0.01997119 75.65014648 -0.01147461 C76.68268555 -0.02823242 77.71522461 -0.04499023 78.77905273 -0.06225586 C79.76518555 -0.06870117 80.75131836 -0.07514648 81.76733398 -0.08178711 C83.13414307 -0.09749756 83.13414307 -0.09749756 84.52856445 -0.11352539 C86.77514648 0.11352539 86.77514648 0.11352539 88.77514648 2.11352539 C89.01565552 4.74575806 89.01565552 4.74575806 89.00219727 8.1237793 C89.00195557 9.40260986 89.00171387 10.68144043 89.00146484 11.99902344 C88.99139286 13.36271356 88.98105964 14.72640178 88.97045898 16.09008789 C88.96844482 17.32654053 88.96643066 18.56299316 88.96435547 19.83691406 C88.95386446 24.47082206 88.92594208 29.10467732 88.90014648 33.73852539 C88.85889648 44.09227539 88.81764648 54.44602539 88.77514648 65.11352539 C58.41514648 65.11352539 28.05514648 65.11352539 -3.22485352 65.11352539 C-3.24547852 54.57415039 -3.26610352 44.03477539 -3.28735352 33.17602539 C-3.29645752 29.84387939 -3.30556152 26.5117334 -3.31494141 23.07861328 C-3.31786027 20.45613648 -3.32040889 17.83365923 -3.32250977 15.21118164 C-3.32512314 14.52543564 -3.32773651 13.83968964 -3.33042908 13.13316345 C-3.33770986 11.122804 -3.33819191 9.11242341 -3.33837891 7.10205078 C-3.34059952 5.96731827 -3.34282013 4.83258575 -3.34510803 3.66346741 C-3.17999223 0.16226231 -3.17999223 0.16226231 0 0 Z " fill="#99C7FE" transform="translate(325.224853515625,294.886474609375)"/>
</svg>
